<?xml version="1.0" encoding="utf-8"?>
<!-- Generator: Adobe Illustrator 23.1.0, SVG Export Plug-In . SVG Version: 6.00 Build 0)  -->
<svg version="1.1" id="Layer_1" xmlns="http://www.w3.org/2000/svg" xmlns:xlink="http://www.w3.org/1999/xlink" x="0px" y="0px"
	 viewBox="0 0 567.3 319" style="enable-background:new 0 0 567.3 319;" xml:space="preserve">
<style type="text/css">
	.st0{fill:#26BAC1;}
	.st1{fill:#FDEE7A;}
	.st2{fill:#FCBA7A;}
	.st3{fill:#89F4F8;}
	.st4{fill:#FDD248;}
	.st5{fill:#FDBB79;}
</style>
<g>
	<g>
		<path class="st0" d="M297.4,0C381,0,464.6,0,548.2,0c-0.2,0.4-0.3,0.9-0.5,1.3c-9.4,19.2-20.4,37.6-32.9,55
			c-6.2,8.6-12.8,17-19.7,25.1c-6.8,8.1-14,15.8-21.3,23.5c-4.6,4.8-9.7,9.1-14.3,13.7c-9.5,9.5-20.1,17.7-30.3,26.3
			c-11,9.2-22.7,17.5-34.7,25.5c-10.5,7.1-21.5,13.4-32.6,19.6c-14.2,8-28.9,15.1-43.9,21.4c-18.2,7.6-36.8,13.8-55.8,19
			c-17.5,4.8-35.2,8.5-52.9,12.2c-8.2,1.7-16.5,3.1-24.7,4.7c-16.3,3.3-32.7,6-49,9.2c-14.1,2.7-28.3,5.1-42.3,8.3
			c-12,2.7-24,5.4-35.8,8.7c-6.3,1.8-12.6,3.5-18.9,5.3c-5.6,1.6-11.2,3.3-16.6,5.4c-7.4,2.9-14.7,6-22,9c0-46.6,0-93.3,0-139.9
			c0.2-0.1,0.4-0.2,0.5-0.3c13.2-11.6,26.6-22.9,41-33.1c15-10.6,30.1-21.1,45.8-30.8c20-12.3,40.8-23.1,61.8-33.5
			c16.2-8,32.5-16.1,49.3-22.7c28.4-11.2,57.4-20.6,86.6-29.2C289.2,2.5,293.5,1.9,297.4,0z"/>
		<path class="st1" d="M567.3,27c0,96.7,0,193.3,0,290c0,1.6-0.4,1.9-1.9,1.9c-159.1,0-318.2,0-477.3,0c4-1.6,8.2-2.3,12.3-3.2
			c13.1-2.8,26.3-5.6,39.5-7.9c11.1-2,22.2-4.1,33.3-6.1c13.8-2.5,27.6-4.8,41.3-7.7c16.5-3.4,33.1-6.7,49.5-11
			c13.9-3.7,27.6-8,41.2-12.5c13.9-4.6,27.3-10.5,40.5-16.9c10.1-4.9,20-10.2,29.9-15.6c14.4-7.9,28-17.1,41.5-26.6
			c9.9-6.9,19.2-14.6,28.5-22.2c7.4-6,14.6-12.3,21.3-18.9c6.5-6.4,13.3-12.4,19.5-19.2c6-6.7,12.1-13.3,17.9-20.1
			c8.5-9.9,16.3-20.4,23.7-31.1c6.1-8.9,11.7-18.1,17.1-27.4c6.7-11.5,12.3-23.5,17.6-35.6C564.2,33.5,565.4,30.1,567.3,27z"/>
		<path class="st2" d="M567.3,27c-1.9,3.1-3.1,6.5-4.6,9.7c-5.4,12.1-10.9,24.1-17.6,35.6c-5.4,9.3-11,18.5-17.1,27.4
			c-7.4,10.7-15.1,21.2-23.7,31.1c-5.9,6.8-11.9,13.4-17.9,20.1c-6.1,6.8-13,12.8-19.5,19.2c-6.8,6.7-14,12.9-21.3,18.9
			c-9.3,7.7-18.7,15.3-28.5,22.2c-13.4,9.5-27,18.7-41.5,26.6c-9.9,5.4-19.8,10.8-29.9,15.6c-13.2,6.4-26.6,12.3-40.5,16.9
			c-13.6,4.5-27.3,8.9-41.2,12.5c-16.3,4.3-32.9,7.6-49.5,11c-13.7,2.8-27.5,5.2-41.3,7.7c-11.1,2-22.2,4.1-33.3,6.1
			c-13.2,2.3-26.4,5.1-39.5,7.9c-4.1,0.9-8.4,1.6-12.3,3.2c-28.8,0-57.6,0-86.4,0c-1.4,0-1.7-0.3-1.7-1.7c0.1-8,0-16.1,0-24.1
			c7.3-3,14.6-6.1,22-9c5.5-2.1,11-3.8,16.6-5.4c6.3-1.8,12.6-3.5,18.9-5.3c11.8-3.3,23.8-5.9,35.8-8.7c14-3.2,28.2-5.6,42.3-8.3
			c16.3-3.2,32.7-5.9,49-9.2c8.2-1.7,16.5-3,24.7-4.7c17.7-3.6,35.4-7.4,52.9-12.2c19-5.2,37.6-11.4,55.8-19
			c15-6.3,29.7-13.4,43.9-21.4c11.1-6.2,22.1-12.5,32.6-19.6c11.9-8,23.7-16.2,34.7-25.5c10.3-8.6,20.8-16.9,30.3-26.3
			c4.7-4.7,9.8-9,14.3-13.7c7.3-7.6,14.4-15.4,21.3-23.5c6.9-8.1,13.5-16.4,19.7-25.1c12.5-17.4,23.5-35.7,32.9-55
			c0.2-0.4,0.3-0.9,0.5-1.3c6,0,11.9,0,17.9,0c1,0,1.3,0.2,1.3,1.3C567.3,9.9,567.3,18.5,567.3,27z"/>
		<path class="st3" d="M297.4,0c-3.9,1.8-8.2,2.5-12.3,3.7c-29.3,8.5-58.3,17.9-86.6,29.2c-16.8,6.7-33.1,14.7-49.3,22.7
			c-21,10.4-41.8,21.2-61.8,33.5c-15.7,9.7-30.8,20.2-45.8,30.8c-14.4,10.1-27.8,21.5-41,33.1c-0.2,0.1-0.3,0.2-0.5,0.3
			c0-2.4,0-4.7,0-7.1c17.8-19.6,36.9-38,57.7-54.5C76.1,77.2,95,63.5,115.2,51.6C146.7,33,179.9,18.3,213.8,5
			c4.3-1.7,8.6-3.3,12.9-5C250.3,0,273.8,0,297.4,0z"/>
		<path class="st4" d="M226.8,0c-4.3,1.7-8.6,3.3-12.9,5c-33.9,13.3-67.1,28-98.6,46.6C95,63.5,76.1,77.2,57.7,91.7
			C36.9,108.2,17.9,126.6,0,146.2c0-4.3,0-8.6,0-12.9c0.7-0.4,1.2-1,1.6-1.6c1.9-2.6,3.8-5.1,5.6-7.6c7.1-9.7,15-18.7,23.1-27.5
			c5.4-5.8,10.9-11.6,16.8-16.9c6.7-6.1,13.3-12.4,20.3-18.2c9.8-8.1,19.5-16.2,29.8-23.6c15.9-11.4,32.6-21.6,49.6-31.1
			c3.9-2.2,8.1-4,11.7-6.6C181.4,0,204.1,0,226.8,0z"/>
		<path class="st5" d="M158.7,0c-3.6,2.7-7.8,4.5-11.7,6.6c-17.1,9.5-33.8,19.7-49.6,31.1c-10.3,7.4-20.1,15.5-29.8,23.6
			c-7,5.8-13.6,12.1-20.3,18.2C41.3,85,35.8,90.7,30.4,96.6c-8.1,8.8-16.1,17.8-23.1,27.5c-1.9,2.6-3.8,5.1-5.6,7.6
			c-0.5,0.6-0.9,1.2-1.6,1.6c0-4.8,0-9.7,0-14.5c0.4-0.6,0.8-1.1,1.1-1.8c5-10,10.8-19.5,16.8-28.8c8-12.3,16.8-23.9,25.9-35.5
			c7.5-9.5,15.3-18.7,23.7-27.4C76.1,16.6,84.8,7.9,94.3,0C115.8,0,137.2,0,158.7,0z"/>
		<path class="st1" d="M94.3,0c-9.5,7.9-18.2,16.5-26.8,25.3c-8.4,8.7-16.3,17.9-23.7,27.4c-9,11.5-17.9,23.2-25.9,35.5
			c-6,9.3-11.8,18.9-16.8,28.8c-0.3,0.6-0.7,1.2-1.1,1.8c0-9.1,0-18.3,0-27.4c1.8-2.7,2.9-5.8,4.2-8.8C13,62,23.9,42.6,37,24.4
			C43.2,15.9,50.1,8,56.9,0C69.4,0,81.8,0,94.3,0z"/>
		<path class="st0" d="M56.9,0C50.1,8,43.2,15.9,37,24.4C23.9,42.6,13,62,4.2,82.6c-1.3,3-2.4,6-4.2,8.8c0-29.9,0-59.7,0-89.6
			C0,0.4,0.2,0,1.8,0C20.2,0.1,38.5,0,56.9,0z"/>
	</g>
</g>
</svg>
